#!OML:ASF H:\Dans Jumps\Project 1\Capture day 1\Session 1\subject.ASF
:FULLY-SPECIFIED
:DEGREES
593
root 0.542683 17.6924 5.82195 5.68718 0.0304185 -1.78931
lowerback -2.01772 -0.652146 -0.178498
upperback 1.69928 -0.922403 2.17288
thorax 2.91609 -0.488002 2.29306
lowerneck -15.2756 -0.196394 -2.35486
upperneck 7.17091 0.0304565 1.65583
head 4.62145 0.055987 0.897083
rclavicle 3.47873e-016 7.95139e-016
rhumerus -24.4827 -22.6105 -79.2478
rradius 18.3368
rwrist 42.4387
rhand -19.8709 -26.3124
rfingers 7.12502
rthumb 6.4644 -56.1937
lclavicle 3.47873e-016 7.95139e-016
lhumerus -21.0628 -3.5398 95.1559
lradius 14.2947
lwrist -3.92481
lhand -26.3404 -5.66633
lfingers 7.12502
lthumb 0.217024 24.3133
rfemur -13.7297 -1.01823 20.7312
rtibia 21.7734
rfoot -12.4679 -3.0563
rtoes 10.2311
lfemur -13.7786 5.29604 -17.9865
ltibia 20.4804
lfoot -10.3552 4.01087
ltoes -2.35729
594
root 0.54427 17.6927 5.82616 5.71274 -0.0126956 -1.78272
lowerback -2.03873 -0.655403 -0.184318
upperback 1.6939 -0.926665 2.17192
thorax 2.92264 -0.490243 2.29495
lowerneck -15.3511 -0.183668 -2.34912
upperneck 7.22026 0.0505032 1.63024
head 4.64849 0.0644216 0.890112
rclavicle -2.23633e-015 5.56597e-015
rhumerus -24.5852 -22.745 -79.1014
rradius 18.3075
rwrist 42.5459
rhand -19.8273 -26.316
rfingers 7.12502
rthumb 6.50656 -56.1961
lclavicle -2.23633e-015 5.56597e-015
lhumerus -21.1751 -2.97145 94.8838
lradius 14.0474
lwrist -4.4686
lhand -26.2872 -5.6645
lfingers 7.12502
lthumb 0.268344 24.3151
rfemur -13.7473 -0.999091 20.7173
rtibia 21.7729
rfoot -12.4744 -3.03823
rtoes 10.2226
lfemur -13.7748 5.31152 -18.0014
ltibia 20.4625
lfoot -10.3535 4.03787
ltoes -2.34735
595
root 0.545803 17.693 5.82963 5.7406 -0.053556 -1.77228
lowerback -2.05358 -0.657946 -0.193975
upperback 1.68618 -0.929696 2.16957
thorax 2.9233 -0.491887 2.2977
lowerneck -15.4219 -0.171562 -2.34222
upperneck 7.26654 0.0696228 1.60283
head 4.67385 0.0722851 0.882303
rclavicle 1.19271e-015 -1.03368e-014
rhumerus -24.6842 -22.8504 -78.9683
rradius 18.2888
rwrist 42.6193
rhand -19.7892 -26.325
rfingers 7.12502
rthumb 6.5433 -56.2039
lclavicle 1.19271e-015 -1.03368e-014
lhumerus -21.2858 -2.41232 94.6034
lradius 13.8183
lwrist -4.9965
lhand -26.2309 -5.64471
lfingers 7.12502
lthumb 0.322707 24.3348
rfemur -13.7745 -0.980966 20.6993
rtibia 21.7809
rfoot -12.4831 -3.02084
rtoes 10.2161
lfemur -13.7787 5.32569 -18.021
ltibia 20.4485
lfoot -10.3512 4.06348
ltoes -2.33502
596
root 0.547203 17.6931 5.83225 5.76922 -0.0935239 -1.75633
lowerback -2.0583 -0.659097 -0.210318
upperback 1.67587 -0.930437 2.16527
thorax 2.91555 -0.492444 2.3024
lowerneck -15.4833 -0.159572 -2.34026
upperneck 7.30743 0.0886979 1.5821
head 4.69604 0.0803939 0.877345
rclavicle 2.98177e-016 4.77083e-015
rhumerus -24.7782 -22.9267 -78.8496
rradius 18.2789
rwrist 42.661
rhand -19.7368 -26.3475
rfingers 7.12502
rthumb 6.59395 -56.2248
lclavicle 2.98177e-016 4.77083e-015
lhumerus -21.3965 -1.88173 94.3204
lradius 13.6117
lwrist -5.49294
lhand -26.159 -5.58936
lfingers 7.12502
lthumb 0.392218 24.39
rfemur -13.8111 -0.958227 20.6757
rtibia 21.7989
rfoot -12.4924 -3.00934
rtoes 10.2023
lfemur -13.7887 5.33788 -18.0465
ltibia 20.4374
lfoot -10.3471 4.08905
ltoes -2.32366
597
root 0.548503 17.6932 5.83417 5.79736 -0.133301 -1.7366
lowerback -2.06256 -0.657287 -0.22838
upperback 1.66918 -0.927144 2.15797
thorax 2.91108 -0.491027 2.30514
lowerneck -15.5488 -0.150562 -2.33756
upperneck 7.34833 0.103689 1.56191
head 4.71899 0.0865576 0.87211
rclavicle 1.98785e-016 -2.06736e-014
rhumerus -24.8582 -22.9918 -78.7445
rradius 18.2724
rwrist 42.6857
rhand -19.6875 -26.3762
rfingers 7.12502
rthumb 6.64148 -56.252
lclavicle 1.98785e-016 -2.06736e-014
lhumerus -21.4969 -1.36745 94.0332
lradius 13.4232
lwrist -5.96964
lhand -26.0779 -5.51608
lfingers 7.12502
lthumb 0.470514 24.4631
rfemur -13.8547 -0.933075 20.6484
rtibia 21.8254
rfoot -12.5026 -3.0014
rtoes 10.184
lfemur -13.8025 5.35194 -18.0761
ltibia 20.4291
lfoot -10.3423 4.11226
ltoes -2.31945
598
root 0.549748 17.6931 5.83563 5.82401 -0.173084 -1.71316
lowerback -2.0568 -0.654615 -0.249719
upperback 1.65967 -0.92239 2.14865
thorax 2.898 -0.488858 2.30784
lowerneck -15.5899 -0.143147 -2.33564
upperneck 7.3678 0.116329 1.54141
head 4.7314 0.0914976 0.866597
rclavicle 9.83984e-015 -2.38542e-015
rhumerus -24.9329 -23.0506 -78.6472
rradius 18.2635
rwrist 42.708
rhand -19.6445 -26.4057
rfingers 7.12502
rthumb 6.68296 -56.2802
lclavicle 9.83984e-015 -2.38542e-015
lhumerus -21.5972 -0.891055 93.7484
lradius 13.2542
lwrist -6.39716
lhand -25.9917 -5.44385
lfingers 7.12502
lthumb 0.553745 24.5352
rfemur -13.9016 -0.904224 20.6176
rtibia 21.8588
rfoot -12.5137 -2.99873
rtoes 10.1551
lfemur -13.8175 5.36524 -18.1096
ltibia 20.4231
lfoot -10.337 4.13559
ltoes -2.31078
599
root 0.550968 17.693 5.83682 5.84602 -0.212402 -1.69337
lowerback -2.04253 -0.65118 -0.267346
upperback 1.65084 -0.916701 2.14009
thorax 2.88074 -0.486133 2.30935
lowerneck -15.6103 -0.138596 -2.32859
upperneck 7.36367 0.124724 1.51221
head 4.73323 0.0939227 0.857075
rclavicle -2.83268e-015 0
rhumerus -25.0009 -23.0858 -78.5636
rradius 18.2631
rwrist 42.7119
rhand -19.6068 -26.428
rfingers 7.12502
rthumb 6.71936 -56.3014
lclavicle -2.83268e-015 0
lhumerus -21.6968 -0.44954 93.4681
lradius 13.1106
lwrist -6.77806
lhand -25.9031 -5.38209
lfingers 7.12502
lthumb 0.639306 24.5967
rfemur -13.9468 -0.871824 20.5913
rtibia 21.8964
rfoot -12.5253 -3.00175
rtoes 10.1203
lfemur -13.8294 5.37975 -18.1383
ltibia 20.419
lfoot -10.3313 4.1573
ltoes -2.31042
600
root 0.552138 17.6928 5.83795 5.86384 -0.252238 -1.6759
lowerback -2.021 -0.646802 -0.283351
upperback 1.64107 -0.90975 2.13223
thorax 2.85834 -0.482716 2.3108
lowerneck -15.6094 -0.136306 -2.31933
upperneck 7.33901 0.129973 1.47659
head 4.7253 0.0944354 0.844817
rclavicle -1.2424e-015 -9.54166e-015
rhumerus -25.0647 -23.1212 -78.4852
rradius 18.2622
rwrist 42.7217
rhand -19.583 -26.4367
rfingers 7.12502
rthumb 6.74242 -56.3093
lclavicle -1.2424e-015 -9.54166e-015
lhumerus -21.7949 -0.0414304 93.1932
lradius 12.9843
lwrist -7.11954
lhand -25.822 -5.34673
lfingers 7.12502
lthumb 0.717664 24.6318
rfemur -13.9887 -0.835027 20.5678
rtibia 21.9361
rfoot -12.538 -3.00891
rtoes 10.097
lfemur -13.8385 5.395 -18.1635
ltibia 20.4168
lfoot -10.3273 4.17776
ltoes -2.30119
601
root 0.553304 17.6925 5.83902 5.87804 -0.292199 -1.66026
lowerback -1.99268 -0.642301 -0.298412
upperback 1.63088 -0.902631 2.12506
thorax 2.83169 -0.479173 2.3125
lowerneck -15.5938 -0.134741 -2.30713
upperneck 7.2999 0.133974 1.43555
head 4.71055 0.0940679 0.830222
rclavicle -1.2424e-015 -3.18055e-015
rhumerus -25.1227 -23.1571 -78.413
rradius 18.2625
rwrist 42.7408
rhand -19.568 -26.4291
rfingers 7.12502
rthumb 6.75683 -56.3013
lclavicle -1.2424e-015 -3.18055e-015
lhumerus -21.8913 0.317505 92.9286
lradius 12.8794
lwrist -7.39948
lhand -25.7508 -5.32493
lfingers 7.12502
lthumb 0.786423 24.6534
rfemur -14.0269 -0.796385 20.5465
rtibia 21.9754
rfoot -12.5488 -3.01865
rtoes 10.0763
lfemur -13.8455 5.40905 -18.186
ltibia 20.4177
lfoot -10.3235 4.19821
ltoes -2.28779
602
root 0.554476 17.6921 5.84012 5.88792 -0.331971 -1.64616
lowerback -1.96155 -0.637883 -0.31304
upperback 1.62288 -0.895697 2.11912
thorax 2.80572 -0.475742 2.31523
lowerneck -15.5719 -0.132431 -2.29489
upperneck 7.25286 0.139172 1.39143
head 4.69231 0.0941021 0.814731
rclavicle 1.39149e-014 1.59028e-015
rhumerus -25.1718 -23.1592 -78.359
rradius 18.2739
rwrist 42.7299
rhand -19.5577 -26.4213
rfingers 7.12502
rthumb 6.76681 -56.2932
lclavicle 1.39149e-014 1.59028e-015
lhumerus -21.9801 0.631091 92.6757
lradius 12.7918
lwrist -7.63001
lhand -25.6847 -5.31132
lfingers 7.12502
lthumb 0.850304 24.6667
rfemur -14.0598 -0.755716 20.5266
rtibia 22.0143
rfoot -12.5588 -3.03053
rtoes 10.0566
lfemur -13.8486 5.42404 -18.2062
ltibia 20.4207
lfoot -10.3221 4.21802
ltoes -2.26697
603
root 0.555667 17.6917 5.84122 5.89508 -0.369814 -1.63628
lowerback -1.93295 -0.632509 -0.322141
upperback 1.6184 -0.887771 2.11373
thorax 2.78468 -0.471759 2.31543
lowerneck -15.5494 -0.130732 -2.28413
upperneck 7.20346 0.14364 1.34893
head 4.67324 0.093866 0.799921
rclavicle 1.09332e-015 -3.97569e-015
rhumerus -25.2077 -23.1585 -78.3154
rradius 18.2828
rwrist 42.7141
rhand -19.5502 -26.4078
rfingers 7.12502
rthumb 6.77407 -56.2794
lclavicle 1.09332e-015 -3.97569e-015
lhumerus -22.0576 0.903602 92.433
lradius 12.7197
lwrist -7.81778
lhand -25.6284 -5.29753
lfingers 7.12502
lthumb 0.904643 24.6803
rfemur -14.0881 -0.716125 20.5113
rtibia 22.0513
rfoot -12.5684 -3.04272
rtoes 10.039
lfemur -13.8503 5.44083 -18.2218
ltibia 20.4262
lfoot -10.3217 4.23573
ltoes -2.24856
604
root 0.55691 17.6913 5.84237 5.90047 -0.405575 -1.62541
lowerback -1.90471 -0.627408 -0.331399
upperback 1.61531 -0.880239 2.1082
thorax 2.7653 -0.467991 2.31553
lowerneck -15.532 -0.126469 -2.2802
upperneck 7.16049 0.152003 1.31542
head 4.65694 0.0959491 0.789375
rclavicle -1.04362e-015 2.5842e-014
rhumerus -25.2302 -23.171 -78.2759
rradius 18.2812
rwrist 42.7132
rhand -19.5495 -26.3881
rfingers 7.12502
rthumb 6.77469 -56.2597
lclavicle -1.04362e-015 2.5842e-014
lhumerus -22.1222 1.10881 92.2089
lradius 12.6637
lwrist -7.94121
lhand -25.5821 -5.27819
lfingers 7.12502
lthumb 0.949338 24.6994
rfemur -14.1119 -0.679966 20.4947
rtibia 22.0854
rfoot -12.5768 -3.05466
rtoes 10.0136
lfemur -13.851 5.45758 -18.2387
ltibia 20.4337
lfoot -10.3226 4.25203
ltoes -2.23107
605
root 0.55816 17.6908 5.8435 5.90474 -0.435883 -1.61884
lowerback -1.88663 -0.621741 -0.33348
upperback 1.61887 -0.872393 2.10326
thorax 2.75839 -0.464047 2.31211
lowerneck -15.5384 -0.121957 -2.282
upperneck 7.13632 0.161401 1.29027
head 4.65026 0.0989345 0.782545
rclavicle -2.78299e-015 7.95139e-015
rhumerus -25.2308 -23.2036 -78.2419
rradius 18.2678
rwrist 42.728
rhand -19.549 -26.3675
rfingers 7.12502
rthumb 6.77518 -56.2391
lclavicle -2.78299e-015 7.95139e-015
lhumerus -22.1645 1.26648 91.9997
lradius 12.6169
lwrist -8.03171
lhand -25.5389 -5.23817
lfingers 7.12502
lthumb 0.991054 24.7393
rfemur -14.1319 -0.647993 20.483
rtibia 22.1154
rfoot -12.5835 -3.06723
rtoes 9.9883
lfemur -13.8521 5.47401 -18.2507
ltibia 20.4425
lfoot -10.3242 4.26378
ltoes -2.21403
